<svg xmlns="http://www.w3.org/2000/svg" width="300" height="169" viewBox="0 0 300 169"><rect width="100%" height="100%" fill="#DDDDDD"/><path fill="#999999" d="m64.21 78.56-2.6-.46q.3-2.08 1.16-3.65t2.15-2.62 2.96-1.58 3.59-.53q2 0 3.61.57t2.75 1.58 1.75 2.37.61 2.94q0 1.38-.31 2.43t-.89 1.83-1.44 1.32-1.94.9q2.6.82 3.88 2.5t1.28 4.22q0 2.16-.8 3.82t-2.16 2.79-3.15 1.71-3.79.58q-2.18 0-3.8-.5t-2.82-1.48-2.04-2.4-1.44-3.28l2.18-.9q.86-.36 1.61-.19t1.09.81q.36.7.79 1.38t1.03 1.21 1.41.86 1.93.33q1.26 0 2.2-.41t1.57-1.07.94-1.47.31-1.63q0-1.04-.22-1.89t-.92-1.45-2.01-.94-3.51-.34V82.4q1.82-.02 3.02-.34t1.91-.89.99-1.37.28-1.76q0-2.04-1.14-3.1t-3.04-1.06q-.88 0-1.62.25t-1.33.7-.99 1.05-.6 1.32q-.34.92-.89 1.22t-1.55.14m40.64 5.94q0 3.78-.81 6.57t-2.24 4.61-3.38 2.71-4.21.89-4.19-.89-3.35-2.71-2.22-4.61-.8-6.57q0-3.8.8-6.58t2.22-4.6 3.35-2.71 4.19-.89 4.21.89 3.38 2.71 2.24 4.6.81 6.58m-5.1 0q0-3.14-.46-5.2t-1.23-3.28-1.77-1.71-2.08-.49q-1.06 0-2.05.49t-1.75 1.71-1.21 3.28-.45 5.2.45 5.2 1.21 3.28 1.75 1.71 2.05.49q1.08 0 2.08-.49t1.77-1.71 1.23-3.28.46-5.2m28.3 0q0 3.78-.81 6.57T125 95.68t-3.38 2.71-4.21.89-4.19-.89-3.35-2.71-2.22-4.61-.8-6.57q0-3.8.8-6.58t2.22-4.6 3.35-2.71 4.19-.89 4.21.89 3.38 2.71 2.24 4.6.81 6.58m-5.1 0q0-3.14-.46-5.2t-1.23-3.28-1.77-1.71-2.08-.49q-1.06 0-2.05.49t-1.75 1.71-1.21 3.28-.45 5.2.45 5.2 1.21 3.28 1.75 1.71 2.05.49q1.08 0 2.08-.49t1.77-1.71 1.23-3.28.46-5.2m36.86 7.84-2.62 2.58-6.78-6.78-6.84 6.82-2.62-2.58 6.84-6.86-6.52-6.52 2.6-2.6 6.52 6.52 6.48-6.48 2.64 2.6-6.5 6.5zm27.38 2.92h5.2v3.7h-16v-3.7h5.86V78.4q0-1 .06-2.06l-4.16 3.48q-.36.28-.71.35t-.66.01-.55-.21-.36-.33l-1.56-2.14 8.82-7.5h4.06zm26.72-25.22-8.58 10.5-1 1.24q.84-.42 1.81-.65t2.09-.23q1.64 0 3.19.54t2.73 1.63 1.9 2.71.72 3.78q0 2.02-.74 3.79t-2.08 3.09-3.23 2.08-4.17.76q-2.32 0-4.16-.74t-3.14-2.07-1.99-3.2-.69-4.15q0-2.04.83-4.19t2.57-4.47l6.9-9.26q.36-.48 1.05-.82t1.59-.34zm-7.46 25.2q1.18 0 2.17-.4t1.7-1.12 1.11-1.69.4-2.11q0-1.24-.38-2.23t-1.08-1.68-1.68-1.05-2.16-.36-2.14.4-1.64 1.11-1.06 1.68-.38 2.09q0 1.2.33 2.19t.98 1.69 1.61 1.09 2.22.39m18.24-16.52q0 2.42 1.25 3.69t3.55 1.27q1.2 0 2.14-.38t1.58-1.04.97-1.56.33-1.94q0-1.18-.36-2.11t-1.02-1.57-1.57-.98-1.99-.34q-1.12 0-2.02.37t-1.54 1.03-.98 1.57-.34 1.99m-2.42 20.24 8.98-11.22q.34-.42.64-.82t.58-.8q-1 .64-2.2.97t-2.52.33q-1.5 0-2.94-.52t-2.56-1.57-1.81-2.6-.69-3.63q0-1.94.72-3.64t2.02-2.98 3.12-2.02 4.02-.74q2.22 0 3.99.7t3.02 1.96 1.92 3.02.67 3.86q0 1.34-.23 2.54t-.65 2.31-1.02 2.17-1.34 2.1l-6.62 9.44q-.34.48-1.02.81t-1.54.33z"/></svg>